<svg width="512" height="512" viewBox="0 0 512 512" fill="none" xmlns="http://www.w3.org/2000/svg">
<path d="M376 37H136C89.0558 37 51 75.0558 51 122V390C51 436.944 89.0558 475 136 475H376C422.944 475 461 436.944 461 390V122C461 75.0558 422.944 37 376 37Z" fill="#D9D9D9"/>
<mask id="path-2-outside-1_3_30" maskUnits="userSpaceOnUse" x="28" y="111" width="457" height="294" fill="black">
<rect fill="white" x="28" y="111" width="457" height="294"/>
<path d="M113.053 394.6C105.159 394.6 99.5058 392.893 96.0925 389.48C92.6792 385.853 90.9725 379.133 90.9725 369.32C90.9725 362.707 91.6125 354.28 92.8925 344.04C94.3858 333.587 96.7325 319.293 99.9325 301.16C105.479 267.667 109.853 238.653 113.053 214.12C114.973 198.76 115.933 185.96 115.933 175.72C115.933 166.12 112.413 161.32 105.373 161.32C99.8258 161.32 93.1058 164.2 85.2125 169.96C77.5325 175.507 68.9992 184.467 59.6125 196.84C56.6258 200.893 53.3192 202.92 49.6925 202.92C46.7058 202.92 44.0392 201.533 41.6925 198.76C39.5592 195.773 38.4925 192.467 38.4925 188.84C38.4925 185.427 39.1325 182.013 40.4125 178.6C41.9058 174.973 44.2525 170.92 47.4525 166.44C57.6925 152.147 69.1058 141.16 81.6925 133.48C94.2792 125.587 106.866 121.64 119.453 121.64C131.186 121.64 140.146 125.373 146.333 132.84C152.733 140.307 155.933 151.187 155.933 165.48C155.933 171.24 155.399 178.067 154.333 185.96C153.266 193.64 152.306 199.933 151.453 204.84C150.599 209.747 149.959 213.16 149.533 215.08C161.693 180.307 175.346 156.093 190.493 142.44C205.639 128.573 222.279 121.64 240.413 121.64C254.279 121.64 265.159 126.547 273.053 136.36C281.159 146.173 285.213 160.04 285.213 177.96C285.213 185 284.253 193.747 282.333 204.2C292.999 174.76 305.479 153.64 319.773 140.84C334.066 128.04 350.493 121.64 369.053 121.64C383.986 121.64 395.399 126.44 403.293 136.04C411.399 145.64 415.453 159.08 415.453 176.36C415.453 185.747 414.066 197.16 411.293 210.6L391.773 302.12C389.639 312.787 388.573 321.96 388.573 329.64C388.573 338.6 390.599 345.32 394.653 349.8C398.919 354.28 404.786 356.52 412.253 356.52C419.293 356.52 426.119 354.173 432.733 349.48C439.559 344.787 447.559 337 456.733 326.12C459.293 323.133 462.173 321.64 465.373 321.64C468.146 321.64 470.279 322.92 471.773 325.48C473.479 328.04 474.333 331.56 474.333 336.04C474.333 344.36 472.306 350.973 468.253 355.88C457.159 369.32 446.173 379.133 435.293 385.32C424.413 391.507 412.999 394.6 401.053 394.6C382.919 394.6 368.733 389.267 358.493 378.6C348.253 367.72 343.133 353.213 343.133 335.08C343.133 322.493 345.693 304.253 350.813 280.36L363.613 221.8C364.039 219.88 364.786 216.467 365.853 211.56C366.919 206.653 367.773 202.067 368.413 197.8C369.053 193.32 369.372 188.947 369.372 184.68C369.372 177.213 367.879 171.667 364.893 168.04C362.119 164.2 358.066 162.28 352.733 162.28C342.706 162.28 332.146 168.787 321.053 181.8C310.173 194.6 299.719 215.933 289.693 245.8C279.879 275.667 271.879 314.493 265.693 362.28C264.199 375.08 261.533 383.72 257.693 388.2C254.066 392.467 248.093 394.6 239.773 394.6C232.519 394.6 227.186 392.893 223.773 389.48C220.573 386.067 218.973 379.667 218.973 370.28C218.973 361.533 220.146 350.12 222.493 336.04C224.839 321.747 227.826 305 231.453 285.8C241.266 234.173 246.173 200.893 246.173 185.96C246.173 177.853 244.573 171.88 241.373 168.04C238.386 164.2 233.799 162.28 227.613 162.28C217.159 162.28 206.386 168.253 195.293 180.2C184.199 191.933 173.319 212.947 162.653 243.24C152.199 273.32 143.453 314.067 136.413 365.48C134.919 376.36 132.679 383.933 129.693 388.2C126.919 392.467 121.373 394.6 113.053 394.6Z"/>
</mask>
<path d="M113.053 394.6C105.159 394.6 99.5058 392.893 96.0925 389.48C92.6792 385.853 90.9725 379.133 90.9725 369.32C90.9725 362.707 91.6125 354.28 92.8925 344.04C94.3858 333.587 96.7325 319.293 99.9325 301.16C105.479 267.667 109.853 238.653 113.053 214.12C114.973 198.76 115.933 185.96 115.933 175.72C115.933 166.12 112.413 161.32 105.373 161.32C99.8258 161.32 93.1058 164.2 85.2125 169.96C77.5325 175.507 68.9992 184.467 59.6125 196.84C56.6258 200.893 53.3192 202.92 49.6925 202.92C46.7058 202.92 44.0392 201.533 41.6925 198.76C39.5592 195.773 38.4925 192.467 38.4925 188.84C38.4925 185.427 39.1325 182.013 40.4125 178.6C41.9058 174.973 44.2525 170.92 47.4525 166.44C57.6925 152.147 69.1058 141.16 81.6925 133.48C94.2792 125.587 106.866 121.64 119.453 121.64C131.186 121.64 140.146 125.373 146.333 132.84C152.733 140.307 155.933 151.187 155.933 165.48C155.933 171.24 155.399 178.067 154.333 185.96C153.266 193.64 152.306 199.933 151.453 204.84C150.599 209.747 149.959 213.16 149.533 215.08C161.693 180.307 175.346 156.093 190.493 142.44C205.639 128.573 222.279 121.64 240.413 121.64C254.279 121.64 265.159 126.547 273.053 136.36C281.159 146.173 285.213 160.04 285.213 177.96C285.213 185 284.253 193.747 282.333 204.2C292.999 174.76 305.479 153.64 319.773 140.84C334.066 128.04 350.493 121.64 369.053 121.64C383.986 121.64 395.399 126.44 403.293 136.04C411.399 145.64 415.453 159.08 415.453 176.36C415.453 185.747 414.066 197.16 411.293 210.6L391.773 302.12C389.639 312.787 388.573 321.96 388.573 329.64C388.573 338.6 390.599 345.32 394.653 349.8C398.919 354.28 404.786 356.52 412.253 356.52C419.293 356.52 426.119 354.173 432.733 349.48C439.559 344.787 447.559 337 456.733 326.12C459.293 323.133 462.173 321.64 465.373 321.64C468.146 321.64 470.279 322.92 471.773 325.48C473.479 328.04 474.333 331.56 474.333 336.04C474.333 344.36 472.306 350.973 468.253 355.88C457.159 369.32 446.173 379.133 435.293 385.32C424.413 391.507 412.999 394.6 401.053 394.6C382.919 394.6 368.733 389.267 358.493 378.6C348.253 367.72 343.133 353.213 343.133 335.08C343.133 322.493 345.693 304.253 350.813 280.36L363.613 221.8C364.039 219.88 364.786 216.467 365.853 211.56C366.919 206.653 367.773 202.067 368.413 197.8C369.053 193.32 369.372 188.947 369.372 184.68C369.372 177.213 367.879 171.667 364.893 168.04C362.119 164.2 358.066 162.28 352.733 162.28C342.706 162.28 332.146 168.787 321.053 181.8C310.173 194.6 299.719 215.933 289.693 245.8C279.879 275.667 271.879 314.493 265.693 362.28C264.199 375.08 261.533 383.72 257.693 388.2C254.066 392.467 248.093 394.6 239.773 394.6C232.519 394.6 227.186 392.893 223.773 389.48C220.573 386.067 218.973 379.667 218.973 370.28C218.973 361.533 220.146 350.12 222.493 336.04C224.839 321.747 227.826 305 231.453 285.8C241.266 234.173 246.173 200.893 246.173 185.96C246.173 177.853 244.573 171.88 241.373 168.04C238.386 164.2 233.799 162.28 227.613 162.28C217.159 162.28 206.386 168.253 195.293 180.2C184.199 191.933 173.319 212.947 162.653 243.24C152.199 273.32 143.453 314.067 136.413 365.48C134.919 376.36 132.679 383.933 129.693 388.2C126.919 392.467 121.373 394.6 113.053 394.6Z" fill="#1877F2"/>
<path d="M96.0925 389.48L88.8105 396.334L88.9143 396.444L89.0214 396.551L96.0925 389.48ZM92.8925 344.04L82.993 342.626L82.9806 342.713L82.9697 342.8L92.8925 344.04ZM99.9325 301.16L109.78 302.898L109.79 302.846L109.798 302.794L99.9325 301.16ZM113.053 214.12L122.969 215.413L122.972 215.387L122.975 215.36L113.053 214.12ZM85.2125 169.96L91.0674 178.067L91.0873 178.052L91.1072 178.038L85.2125 169.96ZM59.6125 196.84L51.6456 190.796L51.6034 190.852L51.5619 190.908L59.6125 196.84ZM41.6925 198.76L33.5552 204.572L33.7936 204.906L34.0586 205.219L41.6925 198.76ZM40.4125 178.6L31.1657 174.793L31.1051 174.94L31.0492 175.089L40.4125 178.6ZM47.4525 166.44L39.3234 160.616L39.3152 160.628L47.4525 166.44ZM81.6925 133.48L86.9011 142.016L86.9535 141.984L87.0054 141.952L81.6925 133.48ZM146.333 132.84L138.632 139.22L138.686 139.284L138.74 139.348L146.333 132.84ZM154.333 185.96L164.237 187.336L164.24 187.317L164.242 187.299L154.333 185.96ZM151.453 204.84L161.305 206.553L161.305 206.553L151.453 204.84ZM149.533 215.08L139.771 212.911L158.972 218.381L149.533 215.08ZM190.493 142.44L197.188 149.868L197.217 149.842L197.245 149.816L190.493 142.44ZM273.053 136.36L265.26 142.628L265.301 142.678L265.343 142.729L273.053 136.36ZM282.333 204.2L272.497 202.393L291.734 207.606L282.333 204.2ZM319.773 140.84L313.101 133.39L313.101 133.39L319.773 140.84ZM403.293 136.04L395.568 142.391L395.61 142.442L395.652 142.492L403.293 136.04ZM411.293 210.6L421.073 212.686L421.079 212.653L421.086 212.621L411.293 210.6ZM391.773 302.12L381.992 300.034L381.979 300.096L381.967 300.159L391.773 302.12ZM394.653 349.8L387.237 356.509L387.323 356.604L387.411 356.697L394.653 349.8ZM432.733 349.48L427.067 341.24L427.006 341.282L426.945 341.325L432.733 349.48ZM456.733 326.12L449.14 319.612L449.114 319.643L449.087 319.674L456.733 326.12ZM471.773 325.48L463.135 330.519L463.286 330.778L463.452 331.027L471.773 325.48ZM468.253 355.88L460.543 349.511L460.54 349.514L468.253 355.88ZM435.293 385.32L440.236 394.013L440.236 394.013L435.293 385.32ZM358.493 378.6L351.211 385.454L351.244 385.49L351.279 385.525L358.493 378.6ZM350.813 280.36L341.043 278.225L341.039 278.245L341.034 278.265L350.813 280.36ZM363.613 221.8L353.851 219.631L353.847 219.648L353.843 219.665L363.613 221.8ZM368.413 197.8L378.302 199.283L378.307 199.249L378.312 199.214L368.413 197.8ZM364.893 168.04L356.786 173.895L356.972 174.152L357.173 174.397L364.893 168.04ZM321.053 181.8L313.442 175.313L313.438 175.318L313.433 175.324L321.053 181.8ZM289.693 245.8L280.212 242.617L280.202 242.648L280.192 242.678L289.693 245.8ZM265.693 362.28L255.775 360.996L255.767 361.059L255.76 361.121L265.693 362.28ZM257.693 388.2L250.1 381.692L250.086 381.708L250.073 381.724L257.693 388.2ZM223.773 389.48L216.477 396.319L216.587 396.437L216.701 396.551L223.773 389.48ZM222.493 336.04L232.356 337.684L232.358 337.672L232.36 337.66L222.493 336.04ZM231.453 285.8L221.628 283.933L221.626 283.944L231.453 285.8ZM241.373 168.04L233.479 174.179L233.582 174.312L233.69 174.442L241.373 168.04ZM195.293 180.2L202.559 187.07L202.59 187.037L202.62 187.005L195.293 180.2ZM162.653 243.24L153.22 239.919L153.213 239.938L153.207 239.957L162.653 243.24ZM136.413 365.48L146.32 366.84L146.32 366.837L136.413 365.48ZM129.693 388.2L121.5 382.465L121.402 382.606L121.308 382.75L129.693 388.2ZM113.053 384.6C106.205 384.6 103.81 383.055 103.164 382.409L89.0214 396.551C95.2021 402.732 104.113 404.6 113.053 404.6V384.6ZM103.375 382.626C102.765 381.978 100.973 378.729 100.973 369.32H80.9725C80.9725 379.538 82.5937 389.728 88.8105 396.334L103.375 382.626ZM100.973 369.32C100.973 363.283 101.562 355.309 102.815 345.28L82.9697 342.8C81.6633 353.251 80.9725 362.13 80.9725 369.32H100.973ZM102.792 345.454C104.263 335.16 106.588 320.99 109.78 302.898L90.0847 299.422C86.8774 317.597 84.509 332.014 82.993 342.626L102.792 345.454ZM109.798 302.794C115.357 269.226 119.749 240.093 122.969 215.413L103.136 212.827C99.9556 237.213 95.6011 266.108 90.0669 299.526L109.798 302.794ZM122.975 215.36C124.924 199.774 125.933 186.527 125.933 175.72H105.933C105.933 185.393 105.021 197.746 103.13 212.88L122.975 215.36ZM125.933 175.72C125.933 169.993 124.935 163.886 121.357 159.006C117.354 153.548 111.418 151.32 105.373 151.32V171.32C106.004 171.32 106.081 171.427 105.854 171.324C105.572 171.195 105.334 170.978 105.228 170.834C105.166 170.749 105.357 170.968 105.559 171.795C105.762 172.628 105.933 173.899 105.933 175.72H125.933ZM105.373 151.32C96.6236 151.32 87.7684 155.715 79.3178 161.882L91.1072 178.038C98.4433 172.685 103.028 171.32 105.373 171.32V151.32ZM79.3576 161.853C70.5283 168.23 61.3003 178.07 51.6456 190.796L67.5794 202.884C76.6981 190.864 84.5367 182.783 91.0674 178.067L79.3576 161.853ZM51.5619 190.908C50.6166 192.191 49.9455 192.703 49.6669 192.874C49.4726 192.993 49.5325 192.92 49.6925 192.92V212.92C57.6205 212.92 63.576 208.319 67.6631 202.772L51.5619 190.908ZM49.6925 192.92C49.7275 192.92 49.8015 192.925 49.8947 192.948C49.9877 192.971 50.0483 192.999 50.066 193.008C50.1006 193.026 49.8305 192.896 49.3264 192.301L34.0586 205.219C37.8549 209.706 43.1319 212.92 49.6925 212.92V192.92ZM49.8298 192.948C48.8923 191.635 48.4925 190.356 48.4925 188.84H28.4925C28.4925 194.578 30.2261 199.912 33.5552 204.572L49.8298 192.948ZM48.4925 188.84C48.4925 186.705 48.888 184.479 49.7758 182.111L31.0492 175.089C29.377 179.548 28.4925 184.148 28.4925 188.84H48.4925ZM49.6593 182.407C50.7702 179.71 52.6715 176.338 55.5898 172.252L39.3152 160.628C35.8335 165.502 33.0415 170.237 31.1657 174.793L49.6593 182.407ZM55.5816 172.264C65.1877 158.855 75.6584 148.876 86.9011 142.016L76.4839 124.944C62.5533 133.444 50.1973 145.438 39.3234 160.616L55.5816 172.264ZM87.0054 141.952C98.291 134.874 109.062 131.64 119.453 131.64V111.64C104.67 111.64 90.2673 116.299 76.3796 125.008L87.0054 141.952ZM119.453 131.64C128.897 131.64 134.745 134.529 138.632 139.22L154.033 126.46C145.547 116.218 133.475 111.64 119.453 111.64V131.64ZM138.74 139.348C143.014 144.334 145.933 152.515 145.933 165.48H165.933C165.933 149.859 162.451 136.279 153.925 126.332L138.74 139.348ZM145.933 165.48C145.933 170.659 145.45 177.017 144.423 184.621L164.242 187.299C165.348 179.117 165.933 171.821 165.933 165.48H145.933ZM144.428 184.584C143.369 192.206 142.427 198.376 141.6 203.127L161.305 206.553C162.185 201.491 163.163 195.074 164.237 187.336L144.428 184.584ZM141.6 203.127C140.746 208.042 140.141 211.245 139.771 212.911L159.294 217.249C159.777 215.075 160.453 211.452 161.305 206.553L141.6 203.127ZM158.972 218.381C170.959 184.103 183.93 161.819 197.188 149.868L183.797 135.012C166.762 150.368 152.426 176.511 140.093 211.779L158.972 218.381ZM197.245 149.816C210.811 137.397 225.113 131.64 240.413 131.64V111.64C219.445 111.64 200.468 119.75 183.74 135.064L197.245 149.816ZM240.413 131.64C251.599 131.64 259.474 135.433 265.26 142.628L280.845 130.092C270.845 117.66 256.959 111.64 240.413 111.64V131.64ZM265.343 142.729C271.467 150.142 275.213 161.43 275.213 177.96H295.213C295.213 158.65 290.852 142.205 280.762 129.991L265.343 142.729ZM275.213 177.96C275.213 184.172 274.357 192.268 272.497 202.393L292.168 206.007C294.148 195.225 295.213 185.828 295.213 177.96H275.213ZM291.734 207.606C302.155 178.846 313.924 159.501 326.444 148.289L313.101 133.39C297.034 147.779 283.844 170.674 272.931 200.794L291.734 207.606ZM326.444 148.289C338.971 137.071 353.044 131.64 369.053 131.64V111.64C347.941 111.64 329.161 119.009 313.101 133.39L326.444 148.289ZM369.053 131.64C381.661 131.64 389.961 135.571 395.568 142.391L411.017 129.689C400.838 117.309 386.31 111.64 369.053 111.64V131.64ZM395.652 142.492C401.748 149.711 405.453 160.558 405.453 176.36H425.453C425.453 157.602 421.05 141.569 410.933 129.588L395.652 142.492ZM405.453 176.36C405.453 184.835 404.192 195.529 401.499 208.579L421.086 212.621C423.94 198.791 425.453 186.658 425.453 176.36H405.453ZM401.512 208.514L381.992 300.034L401.553 304.206L421.073 212.686L401.512 208.514ZM381.967 300.159C379.753 311.228 378.573 321.093 378.573 329.64H398.573C398.573 322.827 399.525 314.346 401.578 304.081L381.967 300.159ZM378.573 329.64C378.573 339.908 380.873 349.476 387.237 356.509L402.068 343.091C400.325 341.164 398.573 337.292 398.573 329.64H378.573ZM387.411 356.697C393.948 363.56 402.659 366.52 412.253 366.52V346.52C406.913 346.52 403.89 345 401.894 342.903L387.411 356.697ZM412.253 366.52C421.67 366.52 430.481 363.34 438.52 357.635L426.945 341.325C421.757 345.007 416.915 346.52 412.253 346.52V366.52ZM438.398 357.72C446.304 352.285 454.977 343.716 464.378 332.566L449.087 319.674C440.141 330.284 432.814 337.289 427.067 341.24L438.398 357.72ZM464.325 332.628C464.943 331.907 465.329 331.682 465.416 331.638C465.458 331.616 465.455 331.622 465.418 331.631C465.38 331.641 465.358 331.64 465.373 331.64V311.64C458.595 311.64 453.125 314.963 449.14 319.612L464.325 332.628ZM465.373 331.64C465.16 331.64 464.568 331.571 463.908 331.175C463.278 330.797 463.074 330.415 463.135 330.519L480.41 320.441C477.275 315.066 471.991 311.64 465.373 311.64V331.64ZM463.452 331.027C463.67 331.354 464.333 332.68 464.333 336.04H484.333C484.333 330.44 483.288 324.726 480.093 319.933L463.452 331.027ZM464.333 336.04C464.333 342.758 462.713 346.885 460.543 349.511L475.962 362.249C481.899 355.062 484.333 345.962 484.333 336.04H464.333ZM460.54 349.514C449.939 362.358 439.846 371.227 430.35 376.627L440.236 394.013C452.499 387.04 464.379 376.282 475.965 362.246L460.54 349.514ZM430.35 376.627C420.901 382 411.182 384.6 401.053 384.6V404.6C414.816 404.6 427.924 401.014 440.236 394.013L430.35 376.627ZM401.053 384.6C384.983 384.6 373.648 379.947 365.706 371.675L351.279 385.525C363.817 398.586 380.856 404.6 401.053 404.6V384.6ZM365.775 371.746C357.638 363.102 353.133 351.241 353.133 335.08H333.133C333.133 355.186 338.867 372.338 351.211 385.454L365.775 371.746ZM353.133 335.08C353.133 323.579 355.508 306.175 360.591 282.455L341.034 278.265C335.877 302.331 333.133 321.407 333.133 335.08H353.133ZM360.582 282.495L373.382 223.935L353.843 219.665L341.043 278.225L360.582 282.495ZM373.374 223.969C373.807 222.024 374.558 218.59 375.624 213.684L356.081 209.436C355.014 214.343 354.272 217.736 353.851 219.631L373.374 223.969ZM375.624 213.684C376.73 208.599 377.625 203.796 378.302 199.283L358.523 196.317C357.92 200.337 357.109 204.708 356.081 209.436L375.624 213.684ZM378.312 199.214C379.015 194.294 379.372 189.447 379.372 184.68H359.372C359.372 188.446 359.09 192.346 358.513 196.386L378.312 199.214ZM379.372 184.68C379.372 176.178 377.722 167.889 372.612 161.683L357.173 174.397C358.036 175.445 359.372 178.249 359.372 184.68H379.372ZM372.999 162.185C368.088 155.385 360.81 152.28 352.733 152.28V172.28C355.322 172.28 356.15 173.015 356.786 173.895L372.999 162.185ZM352.733 152.28C338.25 152.28 325.149 161.579 313.442 175.313L328.663 188.287C339.142 175.994 347.161 172.28 352.733 172.28V152.28ZM313.433 175.324C301.292 189.607 290.353 212.413 280.212 242.617L299.173 248.983C309.086 219.454 319.053 199.593 328.672 188.276L313.433 175.324ZM280.192 242.678C270.108 273.37 262.005 312.877 255.775 360.996L275.61 363.564C281.753 316.109 289.65 277.964 299.193 248.922L280.192 242.678ZM255.76 361.121C254.281 373.796 251.812 379.695 250.1 381.692L265.285 394.708C271.253 387.745 274.117 376.364 275.625 363.439L255.76 361.121ZM250.073 381.724C249.119 382.846 246.61 384.6 239.773 384.6V404.6C249.575 404.6 259.012 402.088 265.312 394.676L250.073 381.724ZM239.773 384.6C233.855 384.6 231.62 383.186 230.844 382.409L216.701 396.551C222.751 402.601 231.183 404.6 239.773 404.6V384.6ZM231.068 382.641C230.678 382.225 228.973 379.321 228.973 370.28H208.973C208.973 380.012 210.467 389.909 216.477 396.319L231.068 382.641ZM228.973 370.28C228.973 362.318 230.051 351.514 232.356 337.684L212.629 334.396C210.24 348.726 208.973 360.749 208.973 370.28H228.973ZM232.36 337.66C234.691 323.467 237.662 306.803 241.279 287.656L221.626 283.944C217.99 303.197 214.988 320.026 212.625 334.42L232.36 337.66ZM241.277 287.667C251.039 236.307 256.173 202.027 256.173 185.96H236.173C236.173 199.76 231.492 232.039 221.628 283.933L241.277 287.667ZM256.173 185.96C256.173 176.871 254.437 168.097 249.055 161.638L233.69 174.442C234.708 175.663 236.173 178.836 236.173 185.96H256.173ZM249.266 161.901C243.884 154.981 235.966 152.28 227.613 152.28V172.28C231.632 172.28 232.887 173.419 233.479 174.179L249.266 161.901ZM227.613 152.28C213.149 152.28 199.908 160.533 187.965 173.395L202.62 187.005C212.863 175.974 221.17 172.28 227.613 172.28V152.28ZM188.026 173.33C175.422 186.661 163.982 209.355 153.22 239.919L172.085 246.561C182.656 216.539 192.977 197.205 202.559 187.07L188.026 173.33ZM153.207 239.957C142.444 270.928 133.586 312.408 126.505 364.123L146.32 366.837C153.319 315.725 161.955 275.712 172.098 246.523L153.207 239.957ZM126.505 364.12C125.039 374.801 123.021 380.293 121.5 382.465L137.885 393.935C142.338 387.573 144.799 377.919 146.32 366.84L126.505 364.12ZM121.308 382.75C121.255 382.832 121.01 383.225 119.863 383.667C118.594 384.155 116.44 384.6 113.053 384.6V404.6C122.554 404.6 132.516 402.206 138.077 393.65L121.308 382.75Z" fill="#D9D9D9" mask="url(#path-2-outside-1_3_30)"/>
</svg>
